<?xml version="1.0" encoding="utf-8"?>
<!-- Generator: Adobe Illustrator 26.0.0, SVG Export Plug-In . SVG Version: 6.00 Build 0)  -->
<svg version="1.1" id="Capa_1" xmlns="http://www.w3.org/2000/svg" xmlns:xlink="http://www.w3.org/1999/xlink" x="0px" y="0px"
	 viewBox="0 0 399.1 102.9" style="enable-background:new 0 0 399.1 102.9;" xml:space="preserve">
<style type="text/css">
	.st0{fill:#E9C11B;}
	.st1{fill:#EA0029;}
	.st2{fill:#5FB5A6;}
	.st3{fill:#009790;}
	.st4{fill:#1A1917;}
</style>
<path class="st0" d="M332.4,39.7c0,0-1.4,0-2.2,0.7c-0.7,0.7-0.9,1-0.9,1s0.6,0.6,0.3,1.1c-0.2,0.6-1.1,1.1-0.5,1.4
	c0.5,0.3,3.8-0.2,4.3-0.9c0.4-0.7-0.6-3.6-1-3.4L332.4,39.7z"/>
<path class="st1" d="M370,61.1c3.8-6.3-5.4-10.7-5.4-10.7c-10.2-3.9-20.8,3.3-20.8,3.3c-2.9-7.2-8.8-9.9-8.8-9.9v-1.7
	c0,0,9.5-1.3,21.2-5.3c9.6-3.3,22.3-2.3,28.8,1.1c0,0,16.2,7.7,13,14.3c-3.3,6.5-20.8,13.6-30,11.8c0,0,1.2-1.5,2-2.8L370,61.1z"/>
<path class="st1" d="M323.3,46.6c0,0,3-0.1,4.3-0.5c0,0,0.4,1,1.1,2.6c0,0-3.1,6.1-4.7,5.1s-0.8-7.2-0.8-7.2H323.3z"/>
<path class="st2" d="M328.2,44.4c0,0-7.1-16-14.2-20.8c-2.3-6-5.3-13.3-9-12.2c-3.8,1.1-3.7,12.1,0.4,22.6c-3.1,1.1-6,2.2-5.1,5.3
	c0.9,3,2.7,10.8,27.9,5.2L328.2,44.4z"/>
<path class="st2" d="M329.3,45.3c0,0,3.6,0,5.5-1.2c1.9-1.1,8,7.4,9,9.6c-0.4-0.9,12.4-6.9,17.5-4.3c5.1,1,13.1,6.3,6.8,13.8
	c-1.8,4.9,2.4,2.7-2.3,8c-6.6,4.4-14.6,2.9-17.2,0.4C345.9,69.1,332.6,62.2,329.3,45.3z"/>
<path class="st1" d="M301.8,17c-0.5,3.7,0.5,4.2,1.1,11.6c0.3,3.5-9.8-15.9-4.6-22.7c0,0,5.5-7,11.2-3.6
	c5.6,3.4,16.1,19.4,16.9,35.8c0.1,2-4-8.1-12.6-15c0,0-0.9-4-3.3-8c-4-6.9-7.9-3.5-8.6,1.9H301.8z"/>
<path class="st0" d="M343.4,55.4c0,0-0.6,0.2-1,0.5c-0.5,0.4-2.1,1.5-2.5,2.2c0,0.2,0,1.1,2.3,2.8c1.3,1,2.1,1.1,2.2,0.9
	s0.4-0.8,0.4-1.3C344.8,59.8,343.9,55.6,343.4,55.4z"/>
<path class="st3" d="M352,61c-0.2-0.2-0.2-1,0.4-1.4s3.7-1,4.4-1.1c0.7-0.2,4.1,0.3,5.5,1.1c0.4,0.2,2.4,2.1,2.7,2.4
	c0.1,0.1,1.6,1.9,0,1.7c-0.6,0-10.2-1.1-12.9-2.7H352z"/>
<path class="st0" d="M313.2,24.8c0-0.3,0-0.9-0.9-0.9c-1.1,0-1.6-0.5-2.9,0.2c-0.7,0.3-1.1,0.8-0.9,1.3c0.1,0.4,1.2,1.3,1.2,1.3
	s0.8,0.7,1.6,0.7c0.5,0,0.9-0.5,1.1-0.7c0.2-0.3,0.7-1.1,0.9-2L313.2,24.8z"/>
<path class="st3" d="M306.7,34.6c0.4-0.8,5.6-0.6,6.5,0c2.2,1.3,2.4,3.5,2,4.1c-0.3,0.6-3.2,1-4.7,0
	C308.9,37.6,306.4,35.1,306.7,34.6L306.7,34.6z"/>
<path class="st4" d="M328.3,40.3c-0.6-6-2.1-11.4-3.9-16.5c-1.5-4.6-3.3-9-5.7-12.7c-1.7-2.8-3.6-5.2-5.6-7.2
	c-1.5-1.6-2.7-2.5-3.1-2.7c-0.3-0.2-1-0.6-2.1-0.9c-1.4-0.4-2.7-0.4-4.1-0.1c-2.6,0.6-4.9,2.5-6.9,5.7c-1.1,1.8-1.5,4.1-1.4,7.1
	c0.1,2.5,0.7,5.4,1.8,8.5c1.4,4.2,4.1,8.4,6.5,11.9c0,0,0.1,0.2,0.2,0.2c-0.4,0.2-0.8,0.3-1.2,0.5c-1.7,0.7-2.6,1.4-3.2,2.7
	c-1,2-1.4,5.5,2.7,8.3c0.2,0.1,0.3,0.2,0.5,0.3c1,0.7,2.7,1.2,4.5,1.6c1.8,0.3,3.8,0.5,6.4,0.5c2.5,0,5.6-0.2,8.3-0.5
	c-0.2,0.6-0.2,1.9-0.2,2.6c-0.4,3.3,0.2,4.6,1.3,5.2l0.2,0.1c0.7,0.4,1.6,0.4,2.4,0.2c1.5-0.5,2.5-2.8,3.5-4.4
	c0.5,1.1,1.5,2.9,2.3,4.2c1.7,3.2,3.8,6.2,6.2,8.9c3.1,3.4,6.3,6.6,10.3,9c2.1,1.3,4.4,2,6.7,2.3c2,0.3,3.9,0,5.8-0.4
	c1.7-0.4,3.1-1.1,4.5-2c1.3-0.8,2.4-1.7,2.9-2.5c0.8-1.4,1.3-2.7,1-4.2c0-0.3-0.1-0.6-0.2-0.7c3.7,0,7.4-0.4,10.9-1.2
	c3.6-0.8,6.9-2.1,9.9-3.7c2.6-1.4,4.9-3.1,6.6-4.8c1.6-1.7,2.7-3.3,2.9-4.7c0.3-1.6-0.3-3.5-1.7-5.4c-1.9-2.4-5.2-5.1-9.1-7.3
	c-3.8-2.1-7.8-3.2-10.6-3.4c-14.4-1.4-25.4,2.3-32.1,4.6c-0.9,0.3-1.4,0.5-2.1,0.7c-2.7,0.9-7.3,0.8-8.6,0.7
	c-0.1-0.4-0.2-0.9-0.4-1.2c2.3-1.8,3.9-4.1,5.8-6.3c1.9-2.2,6.7-4.3,6.8-4.3c0.6-0.6,0.7-0.7,0.9-1.1c0.3-0.5-2.1,0.5-2.7,0.7
	c-0.2,0-4.4,1.6-6.4,3.5c-0.4,0.3-5.1,6.6-5.3,6.3c-0.6-0.3-1.2-0.3-1.2-0.3c1.3-2.1,0.8-11.7,0.8-11.7c-0.5-4.3-1.5-6.2-1.6-6.4
	c-0.1-0.6-0.5-2.1-1.1-2s0.1,3.5,0.3,4.1c0,0.1,1.6,11.1-0.4,16.4c0,0,0,0,0,0.1C330.3,38.6,329,39.3,328.3,40.3L328.3,40.3z
	 M332.4,43.4c-0.9,0.5-2.7,1-3.1,0.7c0,0-0.1-0.3,0-0.4c0.2-0.8,0.9-1,0.7-2.2c0-0.2,0.2-0.3,0.3-0.5c0,0,0.3-0.4,0.6-0.6
	c0.6-0.4,1-0.3,1.2-0.1c0,0,0,0,0.1,0c1.1,0.6,1,1.8,0.7,2.6C332.9,43.1,332.7,43.3,332.4,43.4L332.4,43.4z M297.7,12.7
	c-0.1-2.5,0.2-4.4,1.1-5.8c1.6-2.7,3.5-4.3,5.5-4.8c2.4-0.5,4.2,0.5,4.6,0.7c0,0,3.9,2.6,8.1,9.3c4.2,6.8,7.1,15.2,8.5,24.6
	c-0.6-1.2-1.3-2.5-2.1-3.6c-1.9-2.9-3.4-4.8-4.9-6.5c-1.4-1.6-2.8-2.6-4-3.2c-0.2-1.8-1.7-5.2-2-5.9c-0.7-1.4-2.5-4.6-4.5-6.3
	c-1.1-0.9-1.9-1.3-2.9-1.1c-1.3,0.3-1.7,1.1-2.3,2.4c-1.4,2.6-2.1,6.9-0.9,13.3c0,0.6,0.2,1.2,0.3,1.7c-1.2-2.3-2.2-4.7-3-7
	c-0.9-2.9-1.5-5.6-1.7-7.9L297.7,12.7z M311.3,27.4c-0.2,0.1-0.6,0-0.9-0.3c-1.3-0.8-1.7-1.7-1.6-2.1c0.2-0.4,1.4-1.5,4-0.8
	c0,1.4-0.9,2.8-1.5,3.1V27.4z M313.7,45.3c-5,0-8.7-0.4-10.3-1.6c-1.3-1-2-2.2-2.4-3.4c-0.3-0.8-0.3-1.8,0-2.5s1-1.3,2.1-1.8
	c0.5-0.3,1.8-0.6,2.4-0.7c0.7,0.9,1,1.6,1.6,2.3c1.2,1.3,2,2.4,3.1,2.8c2.8,1.1,4.7,0.5,5.8-1c0.5-0.7,0.8-1.7,0.5-3
	c-0.3-0.9-0.9-2.2-2.4-2.8c-1.3-0.6-3.5-1.2-5.6-0.7c-1.1,0.2-1.6,0.5-2.1,0.7c-1.1-1.4-2.1-4.7-2.7-7.9c-1.2-6.6-1.5-8.5,0.6-12.4
	c0.4-0.7,0.8-1.5,1.5-1.6c0.2,0,1.1,0.2,1.5,0.6c1.2,1,2.8,3.1,4.1,5.8c0.8,1.7,1.2,3.6,1.4,4.5c-1.2-0.1-1.4-0.3-2.3,0
	c-1.5,0.4-2.2,1.7-2.4,2.3c-0.3,0.8-0.4,1.5-0.1,2.1c0.2,0.6,1.1,1.6,1.6,1.9c1.4,0.9,2.1,0.7,2.5,0.4c0.5-0.5,0.9-0.9,1.8-2.6
	c0-0.2,0.4-1.5,0.5-1.7c1.9,1.4,5.8,4.9,8.4,9.4c2.7,4.4,4.6,8,4.7,10.1c-4.2,0.8-9.4,1-13.5,1L313.7,45.3z M307,34.8
	c0.5,0,1-0.2,1.5-0.3c1.8-0.2,3.3-0.2,4.3,0.3c1,0.4,2,1.7,2.2,2.4c0.2,0.5,0.2,1.2,0,1.5c-0.3,0.4-2,0.8-4.2-0.3
	C309.7,37.9,308.3,36.6,307,34.8L307,34.8z M326.9,51c-0.9,1.4-1.6,2.2-2,2.3c-0.3,0.1-0.5,0-0.7,0c-1-0.5-0.8-2.4-0.7-3.7
	c0-1,0.2-1.8,0.3-2.6c1.3-0.2,2.6-0.4,3.8-0.6c0.1,0.6,0.5,1.5,0.8,2.5c-0.3,0.6-0.9,1.3-1.5,2.2L326.9,51z M360.4,73.1
	c-2.6,0.6-7.3,0.7-11.7-2c-8.6-5.3-13.2-12.2-15.7-17c-1.9-3.5-2.6-6.5-3-8c0.2,0,0.4,0,0.7,0c0.5,0,1.1-0.3,2.1-0.7
	c0.3-0.1,0.8-0.4,1.1-0.5c1,0.5,8,5.5,8.4,9.2c-1.6,1.1-3.4,2.3-3.8,3.2c-0.3,0.6-0.1,1.4,1,2.9s3,2.7,4.6,2.5
	c0.6-0.1,1.1-0.5,1.3-1.1c0.2-0.6,0.5-0.6-0.3-3.8c-0.3-1.3-0.7-2.4-0.9-2.9c2.5-1.6,4.4-2.8,7-3.6c5.1-1.5,10.9-1.3,14.6,1
	c2.8,1.7,4.3,4,4.3,5.9s-1.2,4-3.1,4.5c-1-1.5-1.9-3-3.4-3.8c-1.7-1-3.7-1.6-5.8-1.7c-3.4-0.2-6.6,1.2-7.4,2.7
	c-0.3,0.5-0.4,1.1,0,1.6c0.3,0.6,1,0.8,1.8,1.1c2.1,0.9,3.9,1.3,7.6,1.7c2.9,0.4,5.7,0.7,6.7,0.8l0,0l0,0c0,0,1.5,2.3,0.2,4.4
	c-0.7,1.2-3.1,2.8-6.1,3.5L360.4,73.1z M343.2,55.8c0.1,0.5,0.4,1.3,0.6,2.1c0.5,1.9,0.6,2.9,0.5,3.4c-0.9,0.1-2.2-0.7-3.1-1.7
	c-0.8-0.8-0.9-1.3-0.9-1.4C340.5,57.9,341.8,56.8,343.2,55.8z M365.4,63.3c-1.3,0-3.6-0.6-5.5-0.8c-5.1-0.6-7-1.5-7.7-2.2
	c0.2-0.2,0.8-0.7,1.7-0.9c1.3-0.4,2.9-0.7,4.3-0.6C360.3,59,363.4,60.8,365.4,63.3L365.4,63.3z M395.2,54.4
	c-1.5,1.6-4.4,3.3-6.8,4.6c-4,2.1-11.2,4.5-19.8,4.6c0.1-0.1,0.3-0.3,0.4-0.4c1.3-1.6,2.7-3.6,2.6-5.3c-0.1-2.6-1.9-5.1-5.4-7.3l0,0
	c-2.3-1.4-4.4-2.4-7.2-2.5c-2.4-0.1-5,0.2-7.6,1c-3.1,0.9-5.9,2.4-7.9,3.6c-0.4-1.1-1.1-2.2-1.8-3.2c-0.9-1.3-1.8-2.5-3.1-3.6
	c-1.5-1.3-3-2.2-3.7-2.6c0-0.3,0.2-0.7,0.2-0.9c1.7,0,5.7,0,8.6-1c0.6-0.2,1.3-0.4,2-0.7c6.5-2.3,17.4-5.4,31.3-4
	c7.2,0.7,14.2,4.1,19,10.5c0.8,1,1.6,2.5,1.4,3.7C397.3,51.8,396.4,53.1,395.2,54.4L395.2,54.4z"/>
<g>
	<g>
		<path class="st1" d="M210,78.5v20c-29.4,9.5-61.6,0.2-61.6,0.2V88.4h22.2v9.5c9.7,5.2,16.3-0.4,16.3-0.4V82.9h-38.5V61.3
			C185.2,51,210,61.9,210,61.9v12.2h-22.9V62.4c0,0-7.7-3.1-15.6,0v16.1H210L210,78.5L210,78.5z"/>
		<path class="st1" d="M283.9,78.5v20c-29.4,9.5-61.6,0.2-61.6,0.2V88.4h22.2v9.5c9.7,5.2,16.3-0.4,16.3-0.4V82.9h-38.5V61.4
			c36.8-10.3,61.6,0.6,61.6,0.6v12h-23V62.5c0,0-7.7-3.1-15.5,0v15.9L283.9,78.5L283.9,78.5z"/>
		<path class="st1" d="M295.4,99.4V60.3c14.2-4.8,22.7,0.2,22.7,0.2v38.9C306,105,295.4,99.4,295.4,99.4L295.4,99.4z"/>
		<path class="st1" d="M52.1,77.7c0,0,7.6-2.1,9.5-4.7V62.1c0,0-24.6-11.5-61.6-0.4v39.2c0,0,11.9,4.3,23.3-0.2V80h15.9v20.4
			c0,0,10.5,5.7,22.9-0.4V83C62.1,83,57,79,52.1,77.7L52.1,77.7z M39.2,75.5H23.5V61.8c0,0,7.3-4.3,15.8,0L39.2,75.5L39.2,75.5z"/>
		<path class="st1" d="M74.4,61.9v37c0,0,32.2,9,61.6-0.3V61.8c0,0-24.6-11.2-61.6,0V61.9z M113.5,98.2c-7.7,4.1-15.4,0-15.4,0V61.6
			c8.5-4,15.5,0,15.5,0L113.5,98.2L113.5,98.2z"/>
	</g>
	<path class="st1" d="M330.2,98.4c0,1.2-0.4,2.3-1.3,3.2s-1.9,1.3-3.2,1.3s-2.3-0.4-3.2-1.3c-0.9-0.9-1.3-1.9-1.3-3.2
		s0.4-2.3,1.3-3.2s1.9-1.3,3.2-1.3s2.3,0.4,3.2,1.3C329.8,96.1,330.2,97.1,330.2,98.4z M329.1,98.4c0-1-0.3-1.8-1-2.5s-1.5-1-2.4-1
		c-1,0-1.8,0.3-2.4,1c-0.7,0.7-1,1.5-1,2.5s0.3,1.8,1,2.5c0.7,0.6,1.5,1,2.4,1c1,0,1.8-0.3,2.4-1C328.8,100.2,329.1,99.4,329.1,98.4
		z M327.7,100.8h-1.2l-0.9-1.9h-0.5v1.9H324V96h2c0.5,0,0.8,0.2,1.1,0.5c0.3,0.3,0.4,0.6,0.4,1.1c0,0.6-0.3,1-0.9,1.2l1,2H327.7z
		 M326.5,97.5c0-0.2,0-0.3-0.2-0.5c-0.1-0.1-0.3-0.2-0.4-0.2h-0.8V98h0.7c0.2,0,0.4,0,0.5-0.2C326.4,97.7,326.5,97.5,326.5,97.5
		L326.5,97.5z"/>
</g>
</svg>
